<svg width="269" height="241" viewBox="0 0 269 241" fill="none" xmlns="http://www.w3.org/2000/svg">
<path fill-rule="evenodd" clip-rule="evenodd" d="M141.522 85L195.522 108L198.022 90.5H231.522C231.522 90.5 233.046 90.5464 234.022 90.5C238.042 90.3085 240.274 89.4699 244.022 88C248.667 86.178 251.198 84.7059 255.022 81.5C258.949 78.2069 260.991 75.9572 263.522 71.5C265.778 67.525 266.525 64.9611 267.522 60.5C268.123 57.805 268.453 56.2606 268.522 53.5C268.536 52.9144 268.522 52 268.522 52V30.5H230.522L216.022 15H182.022L170.522 0H155.522L141.522 85ZM44.5215 12L55.0215 1L132.522 74.5L122.022 86L44.5215 12ZM0.021553 62L29.5216 58.5C29.5216 58.5 29.7895 65.5519 30.5216 70C30.7297 71.2648 30.8466 72.4226 30.9569 73.5156C31.2623 76.5417 31.5176 79.0712 33.5216 82C35.5547 84.9715 40.5216 88 40.5216 88L46.0216 90.5H118.522V180.5C118.522 180.5 106.261 181.55 98.5216 180.5C93.9674 179.882 91.3992 179.4 87.0216 178C81.28 176.164 73.0216 171.5 73.0216 171.5V240.5H27.0216V116.5C27.0216 116.5 20.9107 113.287 17.5216 110.5C13.4636 107.163 11.4172 104.884 8.52155 100.5C4.90397 95.023 3.75033 91.3321 2.02155 85C-0.35307 76.3024 0.021553 62 0.021553 62ZM193.522 123.5L132.522 97.5L133.022 178L147.022 171.5V240.5H193.522V123.5ZM208.522 46C213.216 46 217.022 42.1944 217.022 37.5C217.022 32.8056 213.216 29 208.522 29C203.827 29 200.022 32.8056 200.022 37.5C200.022 42.1944 203.827 46 208.522 46Z" fill="#1F314F"/>
</svg>
