<svg width="757" height="782" viewBox="0 0 757 782" fill="none" xmlns="http://www.w3.org/2000/svg">
<ellipse cx="378.5" cy="391.5" rx="351.5" ry="390.5" fill="#D1DBC7" fill-opacity="0.56"/>
<path d="M202.726 0.766005C197.004 0.479641 190.137 1.91034 184.845 4.91423C179.552 7.91813 175.834 12.4949 176.55 14.0681C177.266 15.6413 182.413 14.2101 187.563 13.2089C192.712 12.2077 197.861 11.6352 201.866 12.4938C205.871 13.3525 208.733 15.6419 207.589 17.9299C206.444 20.218 201.295 22.5066 195.431 23.222C189.566 23.9373 182.987 23.0789 175.87 23.6419C168.753 24.2049 160.96 26.2259 155.953 30.0882C150.946 33.9506 148.658 39.672 149.373 41.2451C150.088 42.8181 153.806 40.2434 159.671 38.527C165.536 36.8106 173.545 35.9518 174.689 37.2392C175.833 38.5265 170.112 41.9595 163.819 44.5341C157.526 47.1088 150.661 48.8244 145.511 50.9699C140.362 53.1155 136.928 55.691 138.216 57.4075C139.504 59.1241 145.511 59.9814 150.088 60.6966C154.665 61.4118 157.812 61.9846 156.643 63.5042C155.475 65.0239 149.515 67.7048 141.505 70.5656C133.495 73.4263 123.198 76.5742 113.042 77.2895C102.887 78.0048 92.8746 76.2885 82.0034 79.0061C71.1323 81.7236 59.4035 88.874 56.543 91.8777C53.6826 94.8814 59.6912 93.7384 67.4152 93.0233C75.1393 92.3081 84.5793 92.0209 86.7244 93.5943C88.8696 95.1676 83.719 98.6018 77.5688 100.318C71.4186 102.035 64.2673 102.034 55.828 103.894C47.3886 105.753 37.6628 109.471 35.8036 111.76C33.9445 114.048 39.9515 114.908 46.6741 115.051C53.3967 115.193 60.8342 114.62 60.4049 115.622C59.9756 116.623 51.6808 119.198 43.0986 122.201C34.5164 125.205 25.6478 128.639 18.4956 134.932C11.3435 141.226 5.9089 150.379 3.04827 160.249C0.187647 170.119 -0.0988355 180.705 2.33318 189.573C4.7652 198.441 9.91487 205.592 12.2197 206.877C14.5245 208.163 13.9192 203.018 13.49 195.294C13.0609 187.57 12.7745 176.984 14.249 170.613C15.7235 164.242 19.3539 161.822 19.9258 163.396C20.4977 164.969 18.2089 170.404 17.2078 177.27C16.2066 184.136 16.4929 192.433 17.4942 203.017C18.4955 213.602 20.2117 226.475 23.8351 234.847C27.4585 243.218 33.3725 247.358 35.8036 246.643C38.2348 245.928 37.3759 240.492 36.3747 233.055C35.3734 225.617 34.2293 216.176 34.5158 212.171C34.8023 208.166 36.5183 209.596 38.0912 217.463C39.6642 225.33 41.0959 239.634 42.0972 251.506C43.0984 263.378 43.67 272.818 43.956 277.538C44.2421 282.257 58.8314 296.847 59.6898 296.418C60.5482 295.989 62.2645 295.13 61.4064 291.269C60.5482 287.407 57.1152 280.542 55.5416 274.964C53.9679 269.385 54.2551 265.094 55.6856 267.382C57.1162 269.671 59.6893 278.54 62.5502 285.978C65.411 293.416 68.5593 299.423 69.2741 307.433C69.9889 315.443 68.2717 325.454 68.415 334.179C68.5582 342.905 70.5603 350.344 71.9904 352.06C73.4206 353.776 74.2796 349.77 75.1354 344.496C75.9913 339.222 76.8533 332.606 78.2839 331.605C79.7146 330.604 81.7175 335.182 82.7185 339.902C83.7195 344.622 83.7192 350.057 86.5804 356.351C89.4415 362.644 95.1635 370.082 97.7565 371.796C100.35 373.51 99.7388 368.937 98.5946 363.502C97.4504 358.066 95.7344 351.487 98.4523 356.351C101.17 361.214 108.322 377.52 108.894 386.102C109.466 394.683 103.46 395.541 95.736 392.109C88.0122 388.676 78.5706 380.953 74.7085 378.951C70.8463 376.948 72.563 380.667 75.7099 385.673C78.8569 390.679 83.4348 396.972 89.4425 401.978C95.4502 406.984 102.887 410.703 106.389 413.105C109.89 415.507 109.18 417.283 106.462 417.569C103.745 417.855 98.8831 416.997 92.8756 415.137C86.8681 413.278 79.7149 410.417 78.8567 411.991C77.9984 413.564 83.4347 419.571 90.1576 424.291C96.8804 429.011 104.889 432.445 109.323 435.592C113.756 438.739 114.616 441.599 110.897 444.173C107.178 446.747 98.8813 449.035 92.1588 450.323C85.4362 451.61 80.287 451.897 80.5732 453.9C80.8595 455.903 86.5811 459.62 93.4466 460.478C100.312 461.336 108.322 459.334 112.041 459.334C115.759 459.335 115.186 461.338 111.897 464.77C108.607 468.203 102.601 473.065 97.7372 481.648C92.8738 490.23 89.1543 502.532 89.1543 506.251C89.1544 509.97 92.8736 505.105 98.4523 500.671C104.031 496.236 111.468 492.232 112.612 495.236C113.756 498.24 108.607 508.252 106.176 517.979C103.744 527.705 104.03 537.147 105.603 546.301C107.177 555.456 110.039 564.323 109.895 575.766C109.752 587.209 106.605 601.226 107.177 605.517C107.75 609.807 112.04 604.372 114.615 594.789C117.189 585.206 118.048 571.475 119.622 566.612C121.196 561.749 123.485 565.754 124.485 572.905C125.486 580.057 125.2 590.354 124.341 600.081C123.483 609.807 122.053 618.961 119.049 628.688C116.046 638.414 111.467 648.713 106.318 656.866C101.169 665.019 95.4488 671.026 95.8783 673.029C96.3078 675.031 102.887 673.028 109.609 667.164C116.331 661.3 123.196 651.574 126.915 650.144C130.634 648.714 131.207 655.58 129.633 663.733C128.06 671.885 124.342 681.325 120.051 689.764C115.76 698.203 110.896 705.64 111.754 708.072C112.613 710.503 119.193 707.928 125.916 702.636C132.638 697.343 139.503 689.334 144.938 680.466C150.374 671.598 154.379 661.872 156.382 661.157C158.384 660.442 158.383 668.738 158.383 680.181C158.383 691.624 158.384 706.213 154.092 719.515C149.801 732.817 141.22 744.831 139.933 749.837C138.646 754.843 144.654 752.841 153.379 750.41C162.104 747.978 173.546 745.118 182.557 737.68C191.568 730.243 198.147 718.227 202.581 708.358C207.016 698.489 209.304 690.765 210.305 692.196C211.306 693.626 211.021 704.211 208.875 714.509C206.729 724.808 202.725 734.819 197.289 743.115C191.854 751.41 184.987 757.99 186.275 759.992C187.563 761.995 197.003 759.421 206.443 757.705C215.884 755.988 225.325 755.13 232.905 750.41C240.486 745.69 246.207 737.107 250.447 729.505C254.687 721.903 257.649 714.795 259.365 713.365C261.082 711.935 261.655 715.939 260.511 722.375C259.366 728.812 256.504 737.68 252.07 746.834C247.636 755.988 241.629 765.429 236.337 772.008C231.044 778.588 226.467 782.306 230.616 781.877C234.764 781.448 247.638 776.87 258.366 771.864C269.093 766.858 277.675 761.423 284.255 753.128C290.834 744.832 295.411 733.676 298.558 728.526C301.706 723.377 303.422 724.236 302.42 730.529C301.418 736.823 297.699 748.551 297.557 758.135C297.414 767.719 300.847 775.156 304.137 776.729C307.426 778.302 310.572 774.01 314.863 766.858C319.154 759.707 324.59 749.694 328.023 741.684C331.456 733.675 332.885 727.668 334.745 729.242C336.605 730.815 338.894 739.969 343.186 748.122C347.477 756.275 353.769 763.428 356.772 769.578C359.776 775.729 359.49 780.877 362.53 778.969C365.57 777.061 372.205 767.717 375.456 756.99C378.707 746.262 378.708 746.262 381.959 756.99C385.209 767.717 391.845 777.061 394.885 778.969C397.925 780.877 397.637 775.729 400.641 769.578C403.644 763.428 409.938 756.275 414.229 748.122C418.52 739.969 420.81 730.815 422.67 729.242C424.529 727.668 425.959 733.675 429.392 741.684C432.825 749.694 438.26 759.707 442.552 766.858C446.843 774.01 449.988 778.302 453.278 776.729C456.567 775.156 460 767.719 459.858 758.135C459.715 748.551 455.996 736.823 454.994 730.529C453.993 724.236 455.709 723.377 458.856 728.526C462.004 733.676 466.58 744.832 473.16 753.128C479.739 761.423 488.321 766.858 499.049 771.864C509.777 776.87 522.649 781.448 526.797 781.877C530.945 782.306 526.368 778.588 521.076 772.008C515.784 765.429 509.777 755.988 505.342 746.834C500.908 737.68 498.048 728.812 496.904 722.375C495.759 715.939 496.331 711.935 498.047 713.365C499.764 714.795 502.727 721.903 506.968 729.505C511.208 737.107 516.929 745.69 524.509 750.41C532.09 755.13 541.529 755.988 550.969 757.705C560.41 759.421 569.85 761.995 571.138 759.992C572.426 757.99 565.56 751.41 560.125 743.115C554.69 734.819 550.685 724.808 548.54 714.509C546.394 704.211 546.108 693.626 547.109 692.196C548.111 690.765 550.399 698.489 554.833 708.358C559.267 718.227 565.847 730.243 574.857 737.68C583.868 745.118 595.31 747.978 604.036 750.41C612.761 752.841 618.769 754.843 617.482 749.837C616.195 744.831 607.613 732.817 603.322 719.515C599.031 706.213 599.03 691.624 599.03 680.181C599.03 668.738 599.03 660.442 601.033 661.157C603.035 661.872 607.041 671.598 612.476 680.466C617.911 689.334 624.776 697.343 631.499 702.636C638.221 707.928 644.802 710.503 645.66 708.072C646.519 705.64 641.655 698.203 637.364 689.764C633.073 681.325 629.355 671.885 627.781 663.733C626.208 655.58 626.78 648.714 630.499 650.144C634.218 651.574 641.083 661.3 647.805 667.164C654.528 673.028 661.107 675.031 661.536 673.029C661.966 671.026 656.245 665.019 651.096 656.866C645.947 648.713 641.369 638.414 638.365 628.688C635.361 618.961 633.931 609.807 633.073 600.081C632.215 590.354 631.928 580.057 632.929 572.905C633.93 565.754 636.219 561.749 637.792 566.612C639.366 571.475 640.225 585.206 642.8 594.789C645.374 604.372 649.665 609.807 650.237 605.517C650.809 601.226 647.662 587.209 647.519 575.766C647.376 564.323 650.236 555.456 651.81 546.301C653.383 537.147 653.67 527.705 651.239 517.979C648.807 508.252 643.657 498.24 644.801 495.236C645.945 492.232 653.384 496.236 658.962 500.671C664.541 505.105 668.26 509.97 668.26 506.251C668.26 502.532 664.541 490.23 659.677 481.648C654.814 473.065 648.808 468.203 645.518 464.77C642.228 461.338 641.655 459.335 645.374 459.334C649.092 459.334 657.102 461.336 663.968 460.478C670.833 459.62 676.555 455.903 676.841 453.9C677.128 451.897 671.978 451.61 665.256 450.323C658.533 449.035 650.236 446.747 646.518 444.173C642.799 441.599 643.656 438.739 648.09 435.592C652.524 432.445 660.534 429.011 667.257 424.291C673.98 419.571 679.414 413.564 678.556 411.991C677.698 410.417 670.546 413.278 664.539 415.137C658.531 416.997 653.669 417.855 650.952 417.569C648.235 417.283 647.525 415.507 651.026 413.105C654.527 410.703 661.964 406.984 667.972 401.978C673.98 396.972 678.558 390.679 681.705 385.673C684.852 380.667 686.566 376.948 682.704 378.951C678.842 380.953 669.402 388.676 661.679 392.109C653.955 395.541 647.948 394.683 648.52 386.102C649.093 377.52 656.244 361.214 658.962 356.351C661.68 351.487 659.962 358.066 658.818 363.502C657.674 368.937 657.065 373.51 659.658 371.796C662.251 370.082 667.973 362.644 670.834 356.351C673.695 350.057 673.695 344.622 674.696 339.902C675.697 335.182 677.7 330.604 679.131 331.605C680.561 332.606 681.423 339.222 682.279 344.496C683.135 349.77 683.994 353.776 685.424 352.06C686.854 350.344 688.856 342.905 689 334.179C689.143 325.454 687.426 315.443 688.14 307.433C688.855 299.423 692.002 293.416 694.863 285.978C697.723 278.54 700.298 269.671 701.729 267.382C703.159 265.094 703.447 269.385 701.873 274.964C700.299 280.542 696.866 287.407 696.008 291.269C695.15 295.13 696.866 295.989 697.725 296.418C698.583 296.847 713.172 282.257 713.458 277.538C713.745 272.818 714.316 263.378 715.317 251.506C716.319 239.634 717.749 225.33 719.322 217.463C720.895 209.596 722.612 208.166 722.899 212.171C723.185 216.176 722.041 225.617 721.04 233.055C720.039 240.492 719.18 245.928 721.611 246.643C724.042 247.358 729.956 243.218 733.579 234.847C737.203 226.475 738.919 213.602 739.92 203.017C740.922 192.433 741.208 184.136 740.207 177.27C739.206 170.404 736.917 164.969 737.489 163.396C738.061 161.822 741.691 164.242 743.165 170.613C744.64 176.984 744.354 187.57 743.925 195.294C743.495 203.018 742.89 208.163 745.195 206.877C747.5 205.592 752.649 198.441 755.081 189.573C757.513 180.705 757.227 170.119 754.366 160.249C751.506 150.379 746.071 141.226 738.919 134.932C731.767 128.639 722.898 125.205 714.316 122.201C705.734 119.198 697.439 116.623 697.01 115.622C696.58 114.62 704.018 115.193 710.74 115.051C717.463 114.908 723.47 114.049 721.611 111.76C719.752 109.471 710.026 105.753 701.587 103.894C693.147 102.034 685.994 102.035 679.844 100.318C673.694 98.6018 668.545 95.1676 670.69 93.5943C672.835 92.0209 682.275 92.3081 689.999 93.0233C697.723 93.7384 703.732 94.8814 700.871 91.8777C698.011 88.874 686.282 81.7236 675.411 79.0061C664.54 76.2885 654.528 78.0048 644.372 77.2895C634.217 76.5742 623.919 73.4263 615.909 70.5656C607.899 67.7048 601.94 65.0239 600.771 63.5042C599.602 61.9846 602.749 61.4118 607.326 60.6966C611.903 59.9814 617.91 59.1241 619.198 57.4075C620.486 55.691 617.053 53.1155 611.903 50.9699C606.754 48.8244 599.889 47.1088 593.596 44.5341C587.302 41.9595 581.581 38.5265 582.725 37.2392C583.869 35.9518 591.877 36.8106 597.742 38.527C603.607 40.2434 607.326 42.8181 608.041 41.2451C608.757 39.672 606.468 33.9506 601.462 30.0882C596.455 26.2259 588.662 24.2049 581.544 23.6419C574.427 23.0789 567.848 23.9373 561.984 23.222C556.12 22.5066 550.97 20.218 549.826 17.9299C548.681 15.6419 551.541 13.3525 555.546 12.4938C559.551 11.6352 564.702 12.2077 569.852 13.2089C575.001 14.2101 580.149 15.6413 580.864 14.0681C581.58 12.4949 577.863 7.91813 572.57 4.91423C567.277 1.91034 560.411 0.479641 554.689 0.766005C548.967 1.05237 544.39 3.05389 540.814 5.05655C537.238 7.05921 534.665 9.06227 533.95 8.45455C533.235 7.84683 534.379 4.62844 533.235 4.19914C532.09 3.76984 528.657 6.12963 524.938 9.59834C521.219 13.0671 517.214 17.6448 511.35 19.9329C505.485 22.221 497.762 22.2206 484.317 19.0737C470.872 15.9269 451.706 9.63395 433.15 7.7746C414.594 5.91525 396.833 11.0637 378.706 11.0637C360.58 11.0637 342.82 5.91525 324.265 7.7746C305.709 9.63395 286.543 15.9269 273.098 19.0737C259.653 22.2206 251.929 22.221 246.065 19.9329C240.2 17.6448 236.195 13.0671 232.476 9.59834C228.758 6.12963 225.325 3.76984 224.18 4.19914C223.035 4.62844 224.18 7.84683 223.465 8.45455C222.75 9.06227 220.176 7.05921 216.6 5.05655C213.025 3.05389 208.447 1.05237 202.726 0.766005ZM354.009 24.9192C362.035 24.7485 370.371 24.8993 378.706 25.051C395.378 24.7476 412.048 24.4445 426.25 26.7201C440.453 28.9957 452.186 33.8502 465.738 35.064C479.291 36.2779 494.663 33.8505 499.518 34.6599C504.373 35.4694 498.71 39.5148 492.641 42.5487C486.573 45.5828 480.1 47.6068 479.898 49.6294C479.696 51.652 485.765 53.6744 493.451 53.0678C501.138 52.4612 510.441 49.2238 519.746 47.6053C529.051 45.9869 538.356 45.9871 547.459 47.6053C556.562 49.2235 565.463 52.46 572.948 56.9103C580.432 61.3606 586.501 67.0252 584.073 68.6434C581.645 70.2616 570.722 67.8327 561.012 66.8214C551.303 65.8101 542.807 66.215 541.796 68.0355C540.785 69.8559 547.258 73.0924 555.35 75.9243C563.441 78.7563 573.149 81.1833 581.645 82.397C590.14 83.6108 597.423 83.6122 605.717 85.8372C614.011 88.0623 623.316 92.512 627.361 96.5583C631.407 100.605 630.193 104.245 624.731 106.267C619.269 108.29 609.56 108.695 607.537 111.122C605.515 113.549 611.178 118 620.281 120.023C629.383 122.046 641.925 121.64 653.658 122.651C665.39 123.663 676.314 126.091 675.504 128.924C674.695 131.756 662.152 134.991 657.5 138.835C652.849 142.678 656.086 147.129 665.997 149.354C675.909 151.579 692.495 151.579 704.227 152.792C715.96 154.006 722.839 156.433 721.827 160.075C720.815 163.716 711.914 168.571 699.575 168.166C687.236 167.761 671.458 162.097 660.939 160.075C650.42 158.052 645.162 159.67 649.005 163.311C652.849 166.952 665.795 172.616 676.516 177.269C687.237 181.921 695.732 185.561 700.385 192.236C705.038 198.912 705.847 208.622 703.621 220.557C701.396 232.492 696.137 246.651 690.676 250.696C685.214 254.741 679.551 248.673 668.627 239.165C657.704 229.658 641.521 216.713 636.868 214.691C632.216 212.668 639.093 221.568 646.414 231.452C653.734 241.337 662.155 253.124 668.425 265.868C674.696 278.612 679.145 292.772 679.145 304.1C679.144 315.428 674.694 323.924 671.458 320.89C668.222 317.855 666.199 303.29 659.396 288.419C652.593 273.547 640.712 257.979 637.678 258.991C634.644 260.003 640.308 277.398 645.365 293.379C650.422 309.359 654.873 323.922 653.254 336.261C651.635 348.601 643.948 358.715 638.486 366.806C633.025 374.898 629.789 380.967 624.327 384C618.865 387.034 611.179 387.034 608.549 380.562C605.92 374.089 608.347 361.142 607.133 356.287C605.919 351.432 601.064 354.67 598.232 360.132C595.401 365.593 594.592 373.28 591.709 377.389C588.825 381.497 576.405 382.825 571.955 373.116C567.505 363.406 567.293 343.058 571.435 326.006C575.577 308.954 584.073 295.2 585.893 288.524C587.713 281.848 582.86 282.253 579.775 285.035C576.691 287.817 575.375 292.974 572.745 295.199C570.116 297.423 566.17 296.714 566.777 289.939C567.384 283.163 572.543 270.32 576.235 255.098C579.927 239.876 582.152 222.277 580.938 208.724C579.725 195.17 575.072 185.663 575.021 180.454C574.97 175.245 579.521 174.335 583.82 178.33C588.119 182.325 592.164 191.225 593.176 190.618C594.187 190.011 592.164 179.898 587.107 170.592C582.05 161.287 573.959 152.792 573.352 148.544C572.744 144.296 579.623 144.295 586.703 145.914C593.783 147.532 601.065 150.769 602.077 148.544C603.088 146.319 597.828 138.632 590.141 132.968C582.454 127.304 572.34 123.664 565.463 119.821C558.586 115.977 554.946 111.931 553.327 112.336C551.709 112.741 552.113 117.596 553.529 124.271C554.945 130.946 557.372 139.443 558.99 149.962C560.608 160.481 561.418 173.022 561.418 187.182C561.418 201.341 560.609 217.118 558.788 234.313C556.967 251.507 554.136 270.116 552.315 285.49C550.495 300.863 549.686 312.999 547.865 327.968C546.044 342.937 543.213 360.738 536.942 379.146C532.94 390.891 527.5 402.888 521.855 414.918C521.393 414.561 521.07 414.357 520.584 413.937C516.842 410.701 512.392 405.239 507.639 398.362C502.885 391.484 497.829 383.19 494.491 375.301C491.154 367.413 489.534 359.93 490.343 357.805C491.152 355.681 494.39 358.917 497.526 362.356C500.661 365.795 503.694 369.436 503.39 367.514C503.087 365.593 499.446 358.108 496.008 351.837C492.569 345.566 489.332 340.509 489.433 338.082C489.534 335.654 492.973 335.857 495.806 336.463C498.638 337.07 500.863 338.082 500.054 335.655C499.245 333.228 495.401 327.362 490.849 320.788C486.298 314.213 481.039 306.93 476.286 301.064C471.532 295.197 467.284 290.748 467.385 289.534C467.486 288.321 471.936 290.342 473.959 289.433C475.982 288.523 475.577 284.68 471.733 281.646C467.889 278.611 460.607 276.385 455.348 276.183C450.088 275.981 446.852 277.803 449.179 281.95C451.506 286.096 459.395 292.568 465.666 301.064C471.937 309.56 476.588 320.079 478.51 332.115C480.431 344.151 479.623 357.704 480.761 370.442C481.898 383.179 484.882 394.721 489.433 404.228C493.984 413.735 500.053 421.017 504.265 427.505C507.038 431.775 507.538 435.772 510.889 438.375C512.738 439.811 515.354 441.082 517.603 440.433C519.91 439.766 520.768 437.39 522.304 434.975C523.08 433.757 523.681 432.392 524.374 431.064C526.421 430.915 528.808 432.354 530.589 435.59C532.949 439.882 534.236 447.32 535.452 448.608C536.667 449.895 537.812 445.032 537.669 439.382C537.526 433.732 536.095 427.295 534.67 423.304C533.245 419.312 531.824 417.767 531.808 415.531C531.792 413.295 533.181 410.368 535.107 409.924C537.034 409.481 539.496 411.522 541.73 415.118C543.963 418.714 545.966 423.861 547.181 424.219C548.397 424.577 548.826 420.144 547.897 414.136C546.967 408.128 544.678 400.548 543.534 396.758C542.39 392.967 542.389 392.966 543.891 393.681C545.392 394.396 548.395 395.826 550.755 396.327C553.115 396.828 554.833 396.4 554.619 392.824C554.405 389.248 552.258 382.526 551.101 376.584C549.945 370.642 549.777 365.482 551.736 360.574C553.694 355.667 557.778 351.014 560 353.132C562.223 355.249 562.583 364.137 563.558 370.371C564.534 376.605 566.125 380.185 571.029 384.819C575.933 389.453 584.016 395.048 591.881 399.729C599.746 404.409 607.327 408.128 615.233 406.005C623.138 403.881 631.369 395.914 635.586 392.891C639.803 389.868 640.004 391.787 640.915 394.366C641.825 396.945 643.443 400.183 642.431 402.914C641.419 405.645 637.778 407.869 633.379 411.611C628.979 415.354 623.821 420.614 622.456 424.558C621.091 428.502 623.519 431.131 626.553 434.874C629.587 438.616 633.227 443.47 632.165 446.454C631.102 449.438 625.338 450.55 619.877 449.741C614.415 448.932 609.258 446.202 607.488 447.517C605.718 448.832 607.337 454.192 609.865 461.474C612.394 468.756 615.831 477.96 619.472 487.012C623.114 496.064 626.957 504.965 628.271 514.523C629.586 524.081 628.373 534.295 624.833 535.306C621.293 536.317 615.427 528.125 610.471 522.512C605.515 516.898 601.47 513.864 600.458 518.82C599.447 523.777 601.47 536.723 603.999 549.214C606.527 561.705 609.561 573.74 610.926 584.765C612.292 595.79 611.989 605.802 613.102 616.067C614.214 626.333 616.742 636.851 614.871 640.391C613 643.931 606.729 640.492 600.256 630.176C593.783 619.86 587.108 602.667 583.771 599.937C580.433 597.206 580.432 608.938 580.836 635.74C581.241 662.543 582.051 704.413 578.106 712.707C574.162 721 565.464 695.717 558.586 678.927C551.708 662.137 546.652 653.844 542.504 654.046C538.357 654.249 535.122 662.946 534.009 680.747C532.897 698.548 533.908 725.451 529.053 730.204C524.198 734.958 513.478 717.563 508.927 700.369C504.375 683.175 505.992 666.184 501.44 668.106C496.889 670.028 486.17 690.862 483.338 709.27C480.506 727.678 485.562 743.656 483.438 740.824C481.314 737.991 472.01 716.35 463.918 706.438C455.826 696.526 448.949 698.346 446.218 705.73C443.488 713.113 444.903 726.058 442.476 727.878C440.049 729.698 433.779 720.395 428.114 714.933C422.45 709.471 417.394 707.852 412.539 711.898C407.684 715.945 403.032 725.654 399.795 734.353C396.559 743.051 394.738 750.738 393.525 748.31C392.311 745.882 391.704 733.34 389.336 723.315C386.968 713.29 382.836 705.781 378.706 698.273C374.577 705.781 370.447 713.29 368.078 723.315C365.71 733.34 365.103 745.882 363.89 748.31C362.676 750.738 360.856 743.051 357.619 734.353C354.383 725.654 349.73 715.945 344.876 711.898C340.021 707.852 334.964 709.471 329.3 714.933C323.636 720.395 317.366 729.698 314.939 727.878C312.511 726.058 313.926 713.113 311.196 705.73C308.466 698.346 301.588 696.526 293.496 706.438C285.404 716.35 276.1 737.991 273.976 740.824C271.852 743.656 276.908 727.678 274.077 709.27C271.245 690.862 260.524 670.028 255.973 668.106C251.421 666.184 253.039 683.175 248.488 700.369C243.936 717.563 233.216 734.958 228.362 730.204C223.507 725.451 224.518 698.548 223.405 680.747C222.293 662.946 219.057 654.249 214.91 654.046C210.763 653.844 205.706 662.137 198.829 678.927C191.951 695.717 183.253 721 179.309 712.707C175.364 704.413 176.174 662.543 176.578 635.74C176.983 608.938 176.982 597.206 173.644 599.937C170.306 602.667 163.631 619.86 157.158 630.176C150.685 640.492 144.415 643.931 142.544 640.391C140.672 636.851 143.2 626.333 144.313 616.067C145.426 605.802 145.123 595.79 146.488 584.765C147.853 573.74 150.887 561.705 153.416 549.214C155.944 536.723 157.967 523.777 156.956 518.82C155.945 513.864 151.899 516.898 146.943 522.512C141.987 528.125 136.122 536.317 132.582 535.306C129.042 534.295 127.829 524.081 129.143 514.523C130.458 504.965 134.301 496.064 137.942 487.012C141.583 477.96 145.021 468.756 147.549 461.474C150.078 454.192 151.696 448.832 149.927 447.517C148.157 446.202 142.999 448.932 137.538 449.741C132.077 450.55 126.312 449.438 125.25 446.454C124.187 443.47 127.827 438.616 130.862 434.874C133.896 431.131 136.324 428.502 134.959 424.558C133.594 420.614 128.435 415.354 124.036 411.611C119.636 407.869 115.996 405.645 114.984 402.914C113.972 400.183 115.59 396.945 116.5 394.366C117.41 391.787 117.612 389.868 121.829 392.891C126.046 395.914 134.276 403.881 142.182 406.005C150.087 408.128 157.669 404.409 165.534 399.729C173.399 395.048 181.482 389.453 186.386 384.819C191.289 380.185 192.881 376.605 193.856 370.371C194.832 364.137 195.192 355.249 197.414 353.132C197.692 352.867 197.998 352.707 198.326 352.642C200.624 352.181 203.966 356.281 205.679 360.574C207.637 365.482 207.468 370.642 206.312 376.584C205.155 382.526 203.01 389.248 202.796 392.824C202.582 396.4 204.298 396.828 206.658 396.327C209.017 395.826 212.022 394.396 213.524 393.681C215.026 392.966 215.025 392.967 213.881 396.758C212.736 400.548 210.448 408.128 209.518 414.136C208.588 420.144 209.017 424.577 210.233 424.219C211.449 423.861 213.452 418.714 215.685 415.118C217.918 411.522 220.381 409.481 222.307 409.924C224.233 410.368 225.621 413.295 225.605 415.531C225.589 417.767 224.17 419.312 222.745 423.304C221.319 427.295 219.888 433.732 219.745 439.382C219.603 445.032 220.747 449.895 221.963 448.608C223.178 447.32 224.466 439.882 226.826 435.59C229.186 431.299 232.619 430.155 234.903 431.704C237.186 433.253 237.744 438.186 240.61 439.856C243.37 441.466 247.268 442.146 250.152 440.77C254.939 438.486 255.067 433.473 258.942 427.505C263.154 421.017 269.223 413.735 273.774 404.228C278.326 394.721 281.31 383.179 282.447 370.442C283.584 357.704 282.776 344.151 284.697 332.115C286.619 320.079 291.27 309.56 297.541 301.064C303.812 292.568 311.702 286.096 314.028 281.95C316.355 277.803 313.119 275.981 307.86 276.183C302.6 276.385 295.318 278.611 291.474 281.646C287.63 284.68 287.225 288.523 289.248 289.433C291.271 290.342 295.722 288.321 295.823 289.534C295.924 290.748 291.675 295.198 286.922 301.064C282.168 306.93 276.91 314.213 272.358 320.788C267.807 327.362 263.962 333.228 263.153 335.655C262.344 338.082 264.57 337.07 267.402 336.463C270.234 335.857 273.674 335.654 273.774 338.082C273.875 340.509 270.639 345.566 267.2 351.837C263.761 358.108 260.12 365.593 259.817 367.514C259.513 369.436 262.546 365.795 265.682 362.356C268.817 358.917 272.055 355.681 272.864 357.805C273.673 359.93 272.054 367.413 268.716 375.301C265.378 383.19 260.322 391.484 255.568 398.362C250.815 405.239 246.365 410.701 242.623 413.937C240.412 415.85 238.476 417.03 237.164 418.339C230.944 405.163 224.854 392.005 220.473 379.146C214.202 360.738 211.37 342.937 209.55 327.968C207.729 312.999 206.92 300.863 205.099 285.49C203.279 270.116 200.447 251.507 198.627 234.313C196.806 217.118 195.996 201.341 195.996 187.182C195.996 173.022 196.806 160.481 198.424 149.962C200.043 139.443 202.469 130.946 203.885 124.271C205.301 117.596 205.705 112.741 204.087 112.336C202.469 111.931 198.829 115.977 191.952 119.821C185.074 123.664 174.96 127.304 167.273 132.968C159.586 138.632 154.326 146.319 155.338 148.544C156.35 150.769 163.631 147.532 170.712 145.914C177.792 144.295 184.67 144.296 184.063 148.544C183.456 152.792 175.365 161.287 170.308 170.592C165.25 179.898 163.228 190.011 164.239 190.618C165.25 191.225 169.296 182.325 173.595 178.33C177.894 174.335 182.445 175.245 182.394 180.454C182.343 185.663 177.69 195.17 176.476 208.724C175.263 222.277 177.488 239.876 181.18 255.098C184.872 270.32 190.029 283.163 190.636 289.939C191.243 296.714 187.299 297.423 184.669 295.199C182.039 292.974 180.724 287.817 177.639 285.035C174.555 282.253 169.701 281.848 171.522 288.524C173.342 295.2 181.838 308.954 185.98 326.006C190.122 343.058 189.909 363.406 185.46 373.116C181.01 382.825 168.59 381.497 165.706 377.389C162.822 373.28 162.014 365.593 159.182 360.132C156.351 354.67 151.496 351.432 150.281 356.287C149.067 361.142 151.495 374.089 148.865 380.562C146.236 387.034 138.549 387.034 133.088 384C127.626 380.967 124.39 374.898 118.928 366.806C113.467 358.715 105.78 348.601 104.161 336.261C102.542 323.922 106.992 309.359 112.05 293.379C117.107 277.398 122.77 260.003 119.736 258.991C116.702 257.979 104.822 273.547 98.0183 288.419C91.2151 303.29 89.1911 317.855 85.9549 320.889C82.7187 323.924 78.2685 315.428 78.2681 304.1C78.2677 292.772 82.7184 278.612 88.9892 265.868C95.26 253.124 103.678 241.337 110.999 231.452C118.319 221.568 125.197 212.668 120.545 214.691C115.892 216.713 99.7106 229.658 88.7872 239.165C77.8637 248.673 72.2002 254.741 66.7388 250.696C61.2774 246.651 56.0188 232.492 53.7934 220.557C51.568 208.622 52.377 198.912 57.0298 192.236C61.6825 185.56 70.1773 181.921 80.8983 177.269C91.6193 172.616 104.565 166.952 108.409 163.311C112.253 159.67 106.993 158.052 96.4739 160.075C85.955 162.097 70.1788 167.761 57.8397 168.166C45.5007 168.571 36.5993 163.716 35.5876 160.075C34.5758 156.433 41.4529 154.006 53.1855 152.792C64.9181 151.579 81.5059 151.579 91.4174 149.354C101.329 147.129 104.564 142.678 99.9124 138.835C95.2605 134.991 82.7198 131.756 81.9103 128.924C81.1009 126.091 92.0241 123.663 103.757 122.651C115.489 121.64 128.03 122.046 137.132 120.023C146.235 118 151.9 113.549 149.877 111.122C147.855 108.695 138.146 108.29 132.684 106.267C127.222 104.245 126.008 100.605 130.053 96.5583C134.099 92.512 143.404 88.0623 151.698 85.8372C159.991 83.6122 167.272 83.6108 175.768 82.397C184.264 81.1833 193.974 78.7563 202.065 75.9243C210.156 73.0924 216.629 69.8559 215.618 68.0355C214.607 66.215 206.112 65.8101 196.402 66.8214C186.692 67.8327 175.77 70.2616 173.342 68.6434C170.914 67.0252 176.982 61.3606 184.467 56.9103C191.952 52.46 200.851 49.2235 209.954 47.6053C219.057 45.9871 228.361 45.9869 237.667 47.6053C246.972 49.2238 256.277 52.4612 263.963 53.0678C271.65 53.6744 277.719 51.6519 277.517 49.6294C277.315 47.6068 270.842 45.5828 264.773 42.5487C258.705 39.5147 253.042 35.4693 257.896 34.6599C262.751 33.8505 278.123 36.2778 291.676 35.064C305.229 33.8502 316.96 28.9957 331.163 26.7201C338.264 25.5823 345.982 25.0899 354.009 24.9192ZM305.656 66.976C302.005 66.9892 298.898 67.2856 296.127 67.7772C291.692 68.5638 288.117 69.8506 291.121 71.3527C294.125 72.8547 303.708 74.5717 312.147 77.7903C320.586 81.0088 327.88 85.7294 335.103 93.6681C342.327 101.607 349.478 112.763 353.912 119.986C358.346 127.209 360.063 130.5 360.92 129.284C361.778 128.068 361.779 122.346 360.063 115.123C358.347 107.899 354.914 99.1735 350.837 91.5211C346.761 83.8686 342.04 77.2908 335.318 73.2853C328.595 69.2799 319.871 67.8487 312.862 67.2765C310.234 67.0619 307.847 66.9681 305.656 66.976ZM457.551 66.976C455.36 66.9679 452.974 67.0619 450.345 67.2765C443.337 67.8487 434.612 69.2799 427.89 73.2853C421.167 77.2908 416.447 83.8686 412.37 91.5211C408.294 99.1735 404.86 107.899 403.144 115.123C401.428 122.346 401.429 128.068 402.287 129.284C403.145 130.5 404.861 127.209 409.295 119.986C413.729 112.763 420.881 101.607 428.104 93.6681C435.327 85.7294 442.621 81.0088 451.061 77.7903C459.5 74.5717 469.082 72.8547 472.086 71.3527C475.09 69.8506 471.515 68.5638 467.081 67.7772C464.309 67.2856 461.202 66.9893 457.551 66.976ZM276.786 77.3879C275.524 77.4475 273.634 78.1475 271.381 79.4348C267.376 81.7233 262.226 85.8703 254.145 88.0159C246.064 90.1614 235.051 90.3047 228.543 94.1671C222.034 98.0294 220.032 105.611 220.819 107.399C221.606 109.186 225.181 105.181 230.259 102.606C235.337 100.031 241.917 98.8871 248.068 99.5311C254.219 100.175 259.939 102.606 264.158 100.961C268.377 99.3163 271.094 93.5948 273.669 88.803C276.244 84.0112 278.676 80.1499 278.462 78.4333C278.368 77.6823 277.767 77.3415 276.786 77.3879ZM486.422 77.3879C485.441 77.3415 484.839 77.6823 484.745 78.4333C484.531 80.1499 486.964 84.0112 489.538 88.803C492.113 93.5948 494.83 99.3163 499.049 100.961C503.268 102.606 508.989 100.175 515.139 99.5311C521.29 98.8871 527.87 100.031 532.948 102.606C538.026 105.181 541.602 109.186 542.388 107.399C543.175 105.611 541.173 98.0294 534.665 94.1671C528.156 90.3047 517.143 90.1614 509.062 88.0159C500.981 85.8703 495.831 81.7233 491.826 79.4348C489.573 78.1475 487.683 77.4475 486.422 77.3879ZM312.98 104.56C312.657 104.583 312.504 104.823 312.575 105.324C312.861 107.327 316.723 113.478 319.011 118.556C321.3 123.633 322.016 127.638 322.23 132.072C322.444 136.506 322.159 141.369 321.587 142.656C321.015 143.944 320.156 141.655 317.653 138.294C315.15 134.932 311.003 130.498 305.21 127.852C299.417 125.205 291.98 124.347 285.829 124.633C279.678 124.919 274.814 126.35 275.243 127.638C275.672 128.925 281.394 130.069 286.901 132C292.408 133.931 297.701 136.65 301.348 138.938C304.996 141.227 306.998 143.086 303.494 143.157C299.989 143.228 290.977 141.512 283.253 141.44C275.529 141.369 269.093 142.942 264.373 145.016C259.652 147.09 256.649 149.664 259.367 150.737C262.085 151.809 270.524 151.381 277.318 152.383C284.112 153.384 289.262 155.815 292.551 159.892C295.841 163.969 297.271 169.69 297.754 174.363C298.236 179.035 297.771 182.659 298.987 185.734C300.203 188.809 303.101 191.336 306.408 194.245C309.716 197.153 313.434 200.443 313.148 201.373C312.862 202.302 308.571 200.871 305.425 200.013C303.864 199.587 302.595 199.307 301.745 199.233C301.003 197.772 300.271 196.305 299.402 194.835C299.402 192.009 298.896 189.199 297.307 186.282C294.697 181.49 289.19 176.413 283.504 172.372C277.819 168.331 271.955 165.328 266.34 164.863C265.639 164.804 264.939 164.785 264.255 164.799C259.463 164.899 255.327 166.605 255.076 167.544C254.791 168.617 259.582 168.688 263.408 169.475C267.234 170.262 270.096 171.763 268.558 172.228C267.02 172.693 261.083 172.12 255.361 172.049C249.64 171.977 244.134 172.407 239.699 174.946C235.265 177.485 231.904 182.133 232.19 183.706C232.476 185.28 236.409 183.778 239.019 182.956C241.63 182.134 242.917 181.99 241.773 183.206C240.628 184.421 237.053 186.997 234.657 190.216C232.261 193.435 231.046 197.296 230.474 201.552C229.901 205.807 229.973 210.455 231.261 214.568C232.548 218.68 235.051 222.256 235.945 221.434C236.838 220.611 236.123 215.39 236.981 213.995C237.84 212.6 240.271 215.032 242.381 218.143C244.49 221.254 246.279 225.046 248.425 227.835C250.57 230.624 253.073 232.41 256.649 233.912C260.225 235.414 264.875 236.63 267.163 236.201C269.451 235.773 269.379 233.697 270.631 233.018C271.883 232.338 274.458 233.054 277.532 232.517C280.607 231.98 284.183 230.192 286.901 228.082C289.618 225.973 291.477 223.542 292.836 221.325C293.631 220.027 294.25 218.768 294.832 217.273C298.629 215.135 303.723 215.362 305.432 213.275C306.991 211.368 305.682 207.495 303.634 203.063C304.377 203.844 305.128 204.575 305.853 205.591C307.998 208.595 309.571 212.601 310.286 217.321C311.001 222.041 310.858 227.477 310.286 231.41C309.714 235.343 308.664 237.896 310.334 237.549C312.004 237.202 316.293 234.198 320.656 229.263C325.018 224.329 329.452 217.464 333.744 209.525C338.035 201.587 342.183 192.575 345.687 183.564C349.192 174.553 352.053 165.542 352.554 163.181C353.054 160.821 351.195 165.113 347.977 168.76C344.759 172.407 340.181 175.41 339.108 173.837C338.035 172.264 340.467 166.114 341.898 158.891C343.328 151.668 343.756 143.371 341.611 134.646C339.466 125.921 334.746 116.767 332.385 113.12C330.025 109.472 330.025 111.332 330.597 115.123C331.169 118.913 332.319 124.662 332.317 126.294C332.314 127.925 331.225 125.61 328.766 121.76C326.307 117.911 322.588 112.763 319.083 109.116C316.455 106.38 313.948 104.489 312.98 104.56ZM450.228 104.56C449.259 104.489 446.752 106.38 444.124 109.115C440.62 112.763 436.9 117.911 434.441 121.76C431.982 125.609 430.893 127.925 430.89 126.293C430.888 124.662 432.038 118.913 432.611 115.123C433.183 111.332 433.182 109.472 430.822 113.12C428.462 116.767 423.741 125.921 421.596 134.646C419.451 143.371 419.879 151.668 421.31 158.891C422.74 166.114 425.173 172.264 424.1 173.837C423.027 175.41 418.449 172.407 415.23 168.76C412.012 165.113 410.153 160.821 410.654 163.181C411.154 165.541 414.015 174.553 417.52 183.564C421.024 192.575 425.173 201.587 429.464 209.525C433.755 217.463 438.189 224.328 442.552 229.263C446.914 234.198 451.204 237.201 452.874 237.549C454.544 237.896 453.494 235.343 452.921 231.41C452.349 227.477 452.206 222.041 452.921 217.321C453.636 212.601 455.209 208.595 457.354 205.591C458.08 204.575 458.83 203.844 459.573 203.063C457.525 207.495 456.216 211.368 457.776 213.274C459.484 215.362 464.578 215.135 468.376 217.273C468.957 218.768 469.576 220.027 470.372 221.325C471.73 223.542 473.589 225.973 476.307 228.082C479.024 230.192 482.6 231.98 485.675 232.517C488.75 233.054 491.324 232.338 492.576 233.018C493.828 233.697 493.756 235.773 496.045 236.201C498.333 236.63 502.982 235.414 506.558 233.912C510.134 232.41 512.637 230.624 514.783 227.835C516.928 225.046 518.717 221.254 520.827 218.143C522.936 215.032 525.367 212.6 526.226 213.995C527.085 215.389 526.369 220.611 527.263 221.434C528.156 222.256 530.659 218.68 531.947 214.568C533.234 210.455 533.306 205.807 532.734 201.552C532.162 197.296 530.946 193.435 528.55 190.216C526.154 186.997 522.579 184.421 521.435 183.206C520.29 181.99 521.577 182.134 524.188 182.956C526.798 183.778 530.731 185.279 531.017 183.706C531.304 182.133 527.942 177.485 523.508 174.946C519.073 172.407 513.568 171.977 507.846 172.049C502.125 172.12 496.187 172.692 494.65 172.228C493.112 171.763 495.973 170.262 499.799 169.475C503.626 168.688 508.417 168.617 508.131 167.544C507.881 166.605 503.744 164.899 498.952 164.799C498.268 164.785 497.569 164.804 496.867 164.863C491.252 165.328 485.388 168.331 479.703 172.372C474.017 176.413 468.51 181.49 465.9 186.282C464.311 189.199 463.805 192.009 463.806 194.835C462.936 196.305 462.204 197.772 461.462 199.233C460.613 199.307 459.344 199.587 457.783 200.013C454.636 200.871 450.345 202.302 450.059 201.373C449.773 200.443 453.491 197.153 456.799 194.245C460.107 191.336 463.004 188.809 464.22 185.734C465.437 182.658 464.971 179.035 465.454 174.363C465.936 169.69 467.367 163.969 470.656 159.892C473.946 155.815 479.095 153.384 485.889 152.383C492.684 151.381 501.122 151.809 503.84 150.736C506.558 149.664 503.555 147.09 498.835 145.016C494.114 142.942 487.678 141.369 479.954 141.44C472.23 141.512 463.218 143.228 459.714 143.157C456.209 143.086 458.212 141.227 461.859 138.938C465.506 136.65 470.8 133.931 476.307 132C481.814 130.069 487.535 128.925 487.964 127.637C488.393 126.35 483.529 124.919 477.378 124.633C471.228 124.347 463.79 125.205 457.997 127.852C452.204 130.498 448.057 134.932 445.554 138.294C443.051 141.655 442.192 143.944 441.62 142.656C441.048 141.369 440.763 136.506 440.977 132.072C441.192 127.638 441.908 123.633 444.196 118.556C446.484 113.478 450.346 107.326 450.632 105.324C450.703 104.823 450.551 104.583 450.228 104.56ZM271.332 182.06C273.39 182.055 275.673 182.364 277.246 183.028C279.534 183.994 280.321 185.71 279.606 187.319C278.89 188.927 276.674 190.428 274.064 191.036C271.454 191.644 268.449 191.359 266.732 190.179C265.015 188.999 264.587 186.926 264.909 185.353C265.23 183.779 266.339 182.67 268.753 182.259C269.507 182.13 270.397 182.062 271.332 182.06ZM491.875 182.06C492.811 182.062 493.7 182.13 494.454 182.259C496.869 182.67 497.977 183.779 498.299 185.353C498.62 186.926 498.192 188.999 496.475 190.179C494.758 191.359 491.753 191.644 489.143 191.036C486.533 190.428 484.317 188.927 483.602 187.319C482.886 185.71 483.673 183.994 485.961 183.028C487.535 182.364 489.817 182.055 491.875 182.06ZM260.325 183.111C260.698 183.12 260.971 183.25 261.119 183.492C261.512 184.136 261.011 185.567 259.754 187.821C258.497 190.075 256.483 193.153 257.108 196.905C257.732 200.656 260.993 205.081 264.849 207.348C268.705 209.615 273.155 209.726 276.896 208.673C280.638 207.619 283.67 205.402 284.791 202.025C285.911 198.648 285.118 194.109 284.615 190.66C284.111 187.211 283.896 184.853 284.683 184.71C285.47 184.566 287.259 186.639 288.724 189.536C290.19 192.432 291.335 196.151 291.156 199.798C290.977 203.446 289.475 207.023 286.507 209.811C283.539 212.6 279.105 214.601 274.421 215.174C269.737 215.746 264.803 214.889 260.548 212.458C256.292 210.026 252.715 206.021 251.376 201.937C250.037 197.852 250.936 193.688 252.437 190.541C253.939 187.394 256.045 185.264 257.742 184.128C258.802 183.418 259.702 183.095 260.325 183.111ZM502.883 183.111C503.505 183.095 504.405 183.418 505.465 184.128C507.162 185.264 509.268 187.394 510.77 190.541C512.272 193.688 513.17 197.852 511.831 201.937C510.492 206.021 506.915 210.026 502.66 212.458C498.404 214.889 493.471 215.746 488.786 215.174C484.102 214.601 479.668 212.6 476.7 209.811C473.733 207.023 472.23 203.446 472.051 199.798C471.872 196.151 473.017 192.432 474.483 189.536C475.949 186.639 477.737 184.566 478.524 184.71C479.311 184.853 479.096 187.211 478.592 190.66C478.089 194.109 477.297 198.648 478.417 202.025C479.537 205.402 482.57 207.619 486.311 208.673C490.052 209.726 494.502 209.615 498.358 207.348C502.214 205.081 505.475 200.656 506.1 196.905C506.724 193.153 504.711 190.075 503.454 187.821C502.197 185.567 501.696 184.136 502.089 183.492C502.236 183.25 502.509 183.12 502.883 183.111ZM222.029 222.75C221.64 223.001 221.922 225.812 222.205 229.505C222.582 234.43 222.963 240.925 225.958 245.462C228.953 249.999 234.565 252.579 240.518 254.282C246.472 255.986 252.767 256.813 259.502 256.161C266.238 255.508 273.415 253.375 275.791 251.691C278.167 250.007 275.742 248.772 272.13 249.164C268.517 249.557 263.718 251.576 256.414 250.496C249.109 249.416 239.3 245.238 232.993 239.285C226.686 233.331 223.882 225.601 222.667 223.414C222.364 222.867 222.159 222.666 222.029 222.75ZM541.178 222.75C541.048 222.666 540.844 222.867 540.54 223.414C539.326 225.601 536.521 233.331 530.214 239.285C523.907 245.238 514.098 249.416 506.794 250.496C499.489 251.576 494.69 249.557 491.078 249.164C487.465 248.772 485.04 250.007 487.416 251.691C489.792 253.375 496.969 255.508 503.705 256.161C510.441 256.813 516.736 255.986 522.689 254.282C528.643 252.579 534.254 249.999 537.249 245.462C540.245 240.925 540.625 234.43 541.002 229.505C541.285 225.812 541.567 223.001 541.178 222.75ZM378.706 330.317C371.421 330.317 365.419 331.175 356.948 332.391C348.477 333.606 338.178 335.609 330.597 338.899C323.016 342.188 318.154 346.767 315.582 353.705C313.009 360.642 312.718 370.225 315.64 377.589C318.561 384.953 324.69 390.241 330.029 392.632C335.369 395.023 339.921 394.519 343.056 393.052C346.19 391.586 347.91 389.158 348.012 386.984C348.114 384.809 346.595 382.888 344.876 381.927C343.156 380.966 341.235 380.966 341.184 379.854C341.133 378.741 342.955 376.515 344.978 374.997C347.001 373.48 349.225 372.672 351.855 372.824C354.485 372.976 357.519 374.089 359.777 376.277C362.035 378.464 363.586 381.877 363.384 384.759C363.181 387.641 361.26 390.069 358.074 391.94C354.889 393.811 350.439 395.124 346.394 395.934C342.348 396.743 338.707 397.046 335.42 397.299C332.133 397.552 329.2 397.755 328.821 399.151C328.441 400.546 330.515 403.015 332.689 404.936C334.864 406.858 337.088 408.173 339.06 411.309C341.032 414.445 342.752 419.4 345.433 423.597C348.113 427.795 351.753 431.234 356.052 433.408C360.351 435.582 365.307 436.492 369.192 438.01C373.078 439.527 375.18 443.774 378.706 443.774C382.233 443.774 384.337 439.527 388.222 438.01C392.108 436.492 397.062 435.582 401.361 433.408C405.66 431.234 409.301 427.795 411.982 423.597C414.662 419.4 416.383 414.445 418.354 411.309C420.326 408.173 422.551 406.858 424.725 404.936C426.9 403.015 428.974 400.546 428.594 399.151C428.214 397.755 425.282 397.552 421.995 397.299C418.708 397.046 415.066 396.743 411.021 395.934C406.975 395.124 402.526 393.811 399.34 391.94C396.155 390.069 394.232 387.641 394.029 384.759C393.827 381.877 395.378 378.464 397.636 376.277C399.894 374.089 402.928 372.976 405.558 372.824C408.188 372.672 410.414 373.48 412.437 374.997C414.46 376.515 416.281 378.741 416.23 379.854C416.179 380.966 414.256 380.966 412.537 381.927C410.818 382.888 409.301 384.809 409.403 386.984C409.504 389.158 411.224 391.586 414.359 393.052C417.494 394.519 422.046 395.023 427.385 392.632C432.725 390.241 438.853 384.953 441.775 377.589C444.697 370.225 444.406 360.642 441.833 353.705C439.26 346.767 434.397 342.188 426.816 338.899C419.235 335.609 408.938 333.606 400.467 332.391C391.995 331.175 385.993 330.317 378.706 330.317ZM378.706 352.443C385.061 352.746 391.416 353.05 397.476 353.859C403.536 354.668 409.302 355.983 414.561 357.855C419.821 359.726 424.573 362.154 427.051 364.784C429.53 367.414 429.733 370.245 428.367 371.155C427.002 372.065 424.068 371.053 421.085 369.688C418.101 368.322 415.067 366.604 411.476 365.643C407.885 364.683 403.739 364.479 399.896 364.58C396.052 364.682 392.511 365.086 389.03 366.047C385.549 367.008 382.396 370.043 378.706 370.043C375.017 370.043 371.865 367.008 368.384 366.047C364.903 365.086 361.362 364.682 357.519 364.58C353.676 364.479 349.53 364.683 345.939 365.643C342.348 366.604 339.313 368.322 336.33 369.688C333.346 371.053 330.413 372.065 329.047 371.155C327.681 370.245 327.883 367.414 330.361 364.784C332.839 362.154 337.594 359.726 342.853 357.855C348.113 355.983 353.878 354.668 359.938 353.859C365.998 353.05 372.352 352.746 378.706 352.443ZM505.989 449.026C504.701 450.862 493.651 476.041 486.977 485.749C478.076 498.695 467.963 505.976 455.725 505.773C443.488 505.57 429.125 497.884 420.008 491.524C410.891 485.163 406.673 479.679 400.663 476.24C394.653 472.801 386.842 469.565 378.706 469.565C370.571 469.565 362.761 472.801 356.751 476.24C350.741 479.679 346.524 485.163 337.407 491.524C328.29 497.884 313.927 505.57 301.689 505.773C289.451 505.976 279.337 498.695 270.436 485.749C263.867 476.194 251.714 449.583 251.714 449.583C251.342 448.574 249.663 448.619 249.417 450.266C249.417 450.266 249.398 450.865 249.354 451.254C248.925 455.044 248.043 460.618 250.486 471.157C252.928 481.696 258.647 497.477 264.541 513.358C270.436 529.239 276.504 545.22 282.573 555.536C288.642 565.852 294.711 570.504 297.239 574.752C299.767 579 298.755 582.843 297.239 582.843C295.722 582.843 293.699 579 291.878 578.392C290.057 577.785 288.328 580.597 285.855 584.249C283.382 587.9 279.943 592.755 276.909 590.632C273.875 588.508 271.246 579.405 268.92 568.785C266.593 558.165 264.569 546.028 263.153 542.387C261.737 538.745 260.928 543.6 259.613 550.276C258.298 556.951 256.479 565.447 256.783 576.37C257.086 587.294 259.512 600.644 264.367 614.5C269.222 628.357 276.505 642.718 282.371 650.202C288.238 657.686 292.688 658.293 294.002 653.742C295.317 649.191 293.496 639.482 293.192 630.582C292.889 621.681 294.103 613.59 296.329 614.096C298.554 614.602 301.79 623.703 304.42 634.424C307.049 645.145 309.073 657.485 313.624 666.79C318.176 676.095 325.255 682.365 329.3 681.657C333.345 680.949 334.357 673.263 332.536 665.88C330.716 658.496 326.064 651.417 327.076 647.27C328.087 643.122 334.762 641.909 340.931 644.235C347.101 646.562 352.863 652.53 359.026 657.84C365.189 663.149 370.454 672.858 378.706 672.858C386.959 672.858 392.225 663.149 398.388 657.84C404.551 652.53 410.313 646.562 416.483 644.235C422.653 641.909 429.327 643.122 430.339 647.27C431.35 651.417 426.698 658.496 424.878 665.88C423.058 673.263 424.069 680.949 428.114 681.657C432.16 682.365 439.238 676.095 443.79 666.79C448.342 657.485 450.365 645.145 452.995 634.424C455.625 623.703 458.861 614.602 461.086 614.096C463.311 613.59 464.526 621.681 464.222 630.582C463.919 639.482 462.098 649.191 463.412 653.742C464.727 658.293 469.177 657.686 475.043 650.202C480.91 642.718 488.192 628.357 493.047 614.5C497.902 600.644 500.328 587.294 500.632 576.37C500.936 565.447 499.115 556.951 497.8 550.276C496.485 543.6 495.677 538.745 494.261 542.387C492.845 546.028 490.821 558.165 488.495 568.785C486.168 579.405 483.54 588.508 480.506 590.632C477.472 592.755 474.032 587.9 471.559 584.249C469.086 580.597 467.357 577.785 465.536 578.392C463.715 579 461.693 582.843 460.176 582.843C458.659 582.843 457.648 579 460.176 574.752C462.704 570.504 468.772 565.852 474.841 555.536C480.91 545.22 486.977 529.239 492.871 513.358C498.766 497.477 504.485 481.696 506.927 471.157C509.369 460.618 508.725 457.866 508.061 451.254C507.957 450.228 507.277 447.191 505.989 449.026ZM197.47 456.878C197.35 456.852 197.229 456.867 197.108 456.924C195.187 457.834 193.366 469.767 189.624 481.398C185.881 493.03 180.218 504.358 177.588 513.866C174.959 523.373 175.364 531.06 176.982 542.793C178.601 554.525 181.433 570.302 183.253 573.336C185.073 576.37 185.882 566.66 187.601 556.04C189.321 545.42 191.951 533.891 194.48 530.047C197.009 526.204 199.436 530.048 200.953 538.746C202.47 547.444 203.077 560.997 201.863 573.64C200.649 586.282 197.615 598.015 198.222 608.331C198.83 618.648 203.076 627.547 205.705 628.154C208.335 628.76 209.347 621.074 210.966 610.05C212.584 599.025 214.808 584.663 216.629 582.843C218.449 581.023 219.866 591.743 222.091 603.071C224.316 614.399 227.349 626.334 232.508 634.83C237.667 643.326 244.95 648.383 246.871 646.461C248.793 644.54 245.353 635.639 242.217 622.693C239.082 609.747 236.25 592.755 235.542 577.684C234.834 562.614 236.25 549.466 238.071 536.014C239.891 522.562 242.117 508.808 241.005 503.953C239.892 499.098 235.442 503.144 231.396 511.438C227.35 519.731 223.708 532.272 221.079 535.104C218.449 537.936 216.832 531.06 215.82 521.754C214.809 512.449 214.405 500.717 211.674 497.076C208.943 493.434 203.886 497.884 202.065 495.76C200.244 493.636 201.66 484.94 201.357 475.534C201.073 466.715 199.277 457.274 197.47 456.878ZM565.737 456.878C563.93 457.274 562.135 466.715 561.85 475.534C561.547 484.94 562.963 493.636 561.142 495.76C559.322 497.884 554.264 493.434 551.533 497.076C548.803 500.717 548.399 512.449 547.387 521.754C546.375 531.06 544.758 537.936 542.128 535.104C539.499 532.272 535.857 519.731 531.811 511.438C527.766 503.144 523.315 499.098 522.202 503.953C521.09 508.808 523.316 522.562 525.137 536.014C526.957 549.466 528.373 562.614 527.665 577.684C526.957 592.755 524.126 609.747 520.99 622.693C517.855 635.639 514.415 644.54 516.336 646.461C518.257 648.383 525.541 643.326 530.699 634.83C535.858 626.334 538.891 614.399 541.116 603.071C543.342 591.743 544.758 581.023 546.579 582.843C548.399 584.663 550.623 599.025 552.242 610.05C553.86 621.074 554.873 628.76 557.502 628.154C560.131 627.547 564.378 618.648 564.985 608.331C565.592 598.015 562.558 586.282 561.344 573.64C560.131 560.997 560.738 547.444 562.255 538.746C563.771 530.048 566.198 526.204 568.727 530.047C571.256 533.891 573.886 545.42 575.606 556.04C577.325 566.66 578.134 576.37 579.954 573.336C581.775 570.302 584.607 554.525 586.225 542.793C587.843 531.06 588.248 523.373 585.619 513.866C582.989 504.358 577.326 493.03 573.584 481.398C569.841 469.767 568.021 457.834 566.099 456.924C565.979 456.867 565.857 456.852 565.737 456.878ZM365.947 504.283C368.607 504.37 370.854 504.678 372.901 505.095C373.375 509.747 373.708 514.884 373.917 520.326C374.371 532.147 374.271 545.292 374.927 554.807C375.584 564.322 376.998 570.206 378.211 573.227C379.424 576.248 380.433 576.407 381.187 574.281C381.941 572.155 382.451 567.661 382.552 556.794C382.653 545.927 382.349 528.648 382.804 516.032C382.947 512.056 383.171 508.588 383.434 505.469C387.14 504.609 391.232 503.957 397.431 504.438C406.277 505.124 419.416 507.999 429.025 510.527C438.633 513.056 444.903 515.28 448.747 520.641C452.59 526.002 454.006 534.497 454.309 544.005C454.613 553.512 453.804 564.031 449.151 574.044C444.498 584.057 436.003 593.564 429.025 602.465C422.046 611.365 416.584 619.658 408.45 625.321C400.317 630.985 389.365 637.055 378.706 637.055C368.049 637.054 357.098 630.985 348.964 625.321C340.831 619.658 335.369 611.365 328.39 602.465C321.411 593.564 312.917 584.057 308.264 574.044C303.611 564.031 302.802 553.512 303.105 544.005C303.409 534.497 304.824 526.002 308.668 520.641C312.512 515.28 318.781 513.056 328.39 510.527C337.998 507.999 351.138 505.124 359.984 504.438C362.196 504.266 364.163 504.225 365.947 504.283Z" fill="#1A1A1A"/>
</svg>
